<!DOCTYPE svg PUBLIC "-//W3C//DTD SVG 1.1//EN" "http://www.w3.org/Graphics/SVG/1.1/DTD/svg11.dtd">
<!-- Uploaded to: SVG Repo, www.svgrepo.com, Transformed by: SVG Repo Mixer Tools -->
<svg width="198px" height="198px" viewBox="-0.48 -0.48 24.96 24.96" fill="none" xmlns="http://www.w3.org/2000/svg">
<g id="SVGRepo_bgCarrier" stroke-width="0"/>
<g id="SVGRepo_tracerCarrier" stroke-linecap="round" stroke-linejoin="round" stroke="#000000" stroke-width="0.048"/>
<g id="SVGRepo_iconCarrier"> <g opacity="0.15"> <path d="M12 3C13.1046 3 14 3.89543 14 5C14 6.10457 13.1046 7 12 7C10.8954 7 10 6.10457 10 5C10 3.89543 10.8954 3 12 3Z" fill="#000000"/> <path d="M18 10C19.1046 10 20 10.8954 20 12C20 13.1046 19.1046 14 18 14C16.8954 14 16 13.1046 16 12C16 10.8954 16.8954 10 18 10Z" fill="#000000"/> <path d="M6 17C7.10457 17 8 17.8954 8 19C8 20.1046 7.10457 21 6 21C4.89543 21 4 20.1046 4 19C4 17.8954 4.89543 17 6 17Z" fill="#000000"/> </g> <path d="M4 5L10 5M10 5C10 6.10457 10.8954 7 12 7C13.1046 7 14 6.10457 14 5M10 5C10 3.89543 10.8954 3 12 3C13.1046 3 14 3.89543 14 5M14 5L20 5M4 12H16M16 12C16 13.1046 16.8954 14 18 14C19.1046 14 20 13.1046 20 12C20 10.8954 19.1046 10 18 10C16.8954 10 16 10.8954 16 12ZM8 19H20M8 19C8 17.8954 7.10457 17 6 17C4.89543 17 4 17.8954 4 19C4 20.1046 4.89543 21 6 21C7.10457 21 8 20.1046 8 19Z" stroke="#000000" stroke-width="1.176" stroke-linecap="round"/> </g>
</svg>